<svg id="Info" xmlns="http://www.w3.org/2000/svg" width="8.415" height="19.844" viewBox="0 0 8.415 19.844">
  <path id="Fill_4" data-name="Fill 4" d="M2.37,4.74a2.287,2.287,0,0,0,1.676-.692A2.271,2.271,0,0,0,4.74,2.377,2.311,2.311,0,0,0,4.053.7,2.271,2.271,0,0,0,2.37,0,2.275,2.275,0,0,0,.694.7,2.3,2.3,0,0,0,0,2.377,2.268,2.268,0,0,0,.7,4.041a2.283,2.283,0,0,0,1.669.7" transform="translate(1.908 0)" fill="#fff"/>
  <path id="Fill_6" data-name="Fill 6" d="M6.4,0H0V3.127H2.062v7.321H0v3.127H8.415V10.448H6.4Z" transform="translate(0 6.269)" fill="#fff"/>
</svg>
