<svg id="Logo_White" data-name="Logo / White" xmlns="http://www.w3.org/2000/svg" xmlns:xlink="http://www.w3.org/1999/xlink" width="214" height="24" viewBox="0 0 214 24">
  <defs>
    <clipPath id="clip-path">
      <path id="Clip_17" data-name="Clip 17" d="M0,24H214V0H0Z" fill="none"/>
    </clipPath>
  </defs>
  <g id="Full_Sail_University" data-name="Full Sail University">
    <g id="Group_3" data-name="Group 3" transform="translate(0 0.044)">
      <path id="Fill_1" data-name="Fill 1" d="M11.978,23.956A11.978,11.978,0,0,1,3.509,3.508,11.975,11.975,0,0,1,22,5.415l-1.045.509c-.482.22-.934.448-1.264.614-.168.085-.3.152-.383.19-.179.084-1.156.547-2.393,1.134L13.1,9.666A14.506,14.506,0,0,0,10.94,8.527c.5-.675.777-1.182.683-1.263a.054.054,0,0,0-.036-.011,4.556,4.556,0,0,0-1.416,1.312A.739.739,0,0,0,9.9,8.493a.125.125,0,0,0-.1.04c-.046.063,0,.183.12.338a9.581,9.581,0,0,0-.841,1.2,7.121,7.121,0,0,0-2.584-.914,1.022,1.022,0,0,0-.109.006.28.28,0,0,0-.216.129,3.71,3.71,0,0,0-.939-.176.481.481,0,0,0-.4.132.358.358,0,0,0-.04.279c.053.288.4,1.1,2.493,2.451a7.879,7.879,0,0,0-.689.785.574.574,0,0,0-.2-.048.1.1,0,0,0-.088.033c-.032.05,0,.14.1.254-.495.664-.8,1.217-.7,1.288a.038.038,0,0,0,.024.007c.109,0,.428-.3.814-.755a6.567,6.567,0,0,0,.794.829,11.4,11.4,0,0,0-.6,1.283.694.694,0,0,0-.055.536A.511.511,0,0,0,7,16.45a.752.752,0,0,0,.272.058.935.935,0,0,0,.3-.065l.061-.02c.223-.071,4.3-1.722,4.344-1.739l5.664,1.658.338.1-.178.784a.127.127,0,0,0,.013.049.308.308,0,0,0,.067.068.635.635,0,0,0,.148.076,1.353,1.353,0,0,0,.2.064,1.6,1.6,0,0,0,.2.034c.044,0,.082.006.116.006l.053,0a.245.245,0,0,0,.11-.032l.93-.535a.836.836,0,0,0,.232-.112.475.475,0,0,0,.19.043.3.3,0,0,0,.126-.026c.115-.053.094-.1.067-.161a.419.419,0,0,1-.02-.052l-.012-.036.072-.042,1.309-.9a.191.191,0,0,0,.086-.118.249.249,0,0,0-.026-.154.515.515,0,0,0-.127-.166,1.009,1.009,0,0,0-.224-.149.831.831,0,0,0-.387-.093.8.8,0,0,0-.083,0,.817.817,0,0,0-.149.027.436.436,0,0,0-.047.017l-.013,0-.836.255-.075-.385s-.062-.4-.754-.7a.35.35,0,0,0-.159-.041c-.167,0-.307.146-.468.316l-.007.007c-.162.166-.443.436-.578.566l-.371-.243c-.811-.533-2.167-1.425-2.676-1.739.024-.018,2.585-1.947,4.811-3.642l.04-.031c1.288-.98,2.34-1.79,2.885-2.224l.382-.294a11.979,11.979,0,0,1-10.843,17.07ZM8.111,13.122h0a6.293,6.293,0,0,0-.935-.409c.145-.21.27-.409.362-.577.3.187.6.364.913.541,0,0-.137.164-.338.445Zm2.429-2.257h0c-.02-.012-.494-.291-1.124-.621a9.168,9.168,0,0,0,.656-.659,7.662,7.662,0,0,0,.942,1.065c-.272.126-.437.2-.474.215Z" fill="#fff"/>
    </g>
    <path id="Fill_4" data-name="Fill 4" d="M6,0,5.746,1.788H2.228V4.306H5.046v1.8H2.228V11H0V0Z" transform="translate(32 7)" fill="#fff"/>
    <path id="Fill_6" data-name="Fill 6" d="M2.288,0V7.1a2.85,2.85,0,0,0,.192,1.288A1.594,1.594,0,0,0,4,9.134c.978,0,1.6-.464,1.7-1.256a7.1,7.1,0,0,0,.03-.966V0H8V7.271a4.242,4.242,0,0,1-.177,1.694C7.536,9.82,6.448,11,4.048,11,2.352,11,1.1,10.5.481,9.556A3.136,3.136,0,0,1,0,7.519V0Z" transform="translate(43.141 7)" fill="#fff"/>
    <path id="Fill_8" data-name="Fill 8" d="M2.189,0V9.163H6L5.618,11H0V0Z" transform="translate(54.964 7)" fill="#fff"/>
    <path id="Fill_10" data-name="Fill 10" d="M2.189,0V9.163H6L5.618,11H0V0Z" transform="translate(64.663 7)" fill="#fff"/>
    <path id="Fill_12" data-name="Fill 12" d="M6.808,2.557a4.631,4.631,0,0,0-2.473-.8c-.87,0-1.479.5-1.479,1.2,0,.542.287.813,1.175,1.054l1.281.346A3.156,3.156,0,0,1,8,7.479C8,9.6,6.259,11,3.618,11A7.662,7.662,0,0,1,0,10.05L.793,8.412a6.1,6.1,0,0,0,2.918.841c1.221,0,1.863-.5,1.863-1.429,0-.677-.445-1.1-1.39-1.353L3.007,6.154A3.206,3.206,0,0,1,.916,4.829,2.967,2.967,0,0,1,.473,3.235C.473,1.325,2.031,0,4.274,0A6.31,6.31,0,0,1,7.818,1.052Z" transform="translate(77.654 7)" fill="#fff"/>
    <path id="Fill_14" data-name="Fill 14" d="M2.2,11H0L3.431,0H5.7L9,11H6.743L6.005,8.4H2.935L2.2,11ZM4.5,2.413h0S4.2,3.707,4,4.529c-.193.772-.327,1.295-.557,2.036H5.492a.3.3,0,0,1-.014-.044c-.234-.81-.426-1.558-.557-2.164-.105-.5-.418-1.929-.421-1.943Z" transform="translate(88 7)" fill="#fff"/>
    <path id="Clip_17-2" data-name="Clip 17" d="M0,24H214V0H0Z" fill="none"/>
    <g id="Mask_Group_2" data-name="Mask Group 2" clip-path="url(#clip-path)">
      <path id="Fill_16" data-name="Fill 16" d="M0,11H2.151V0H0Z" transform="translate(98.935 7)" fill="#fff"/>
      <path id="Fill_18" data-name="Fill 18" d="M2.356,0V9.163h4.1L6.04,11H0V0Z" transform="translate(105.387 7)" fill="#fff"/>
      <path id="Fill_19" data-name="Fill 19" d="M2.461,0V7.1a2.672,2.672,0,0,0,.206,1.288A1.756,1.756,0,0,0,4.3,9.134c1.047,0,1.719-.464,1.822-1.256a6.257,6.257,0,0,0,.034-.966V0H8.6V7.271a3.975,3.975,0,0,1-.191,1.694C8.106,9.82,6.935,11,4.354,11,2.53,11,1.188,10.5.517,9.556A2.964,2.964,0,0,1,0,7.519V0Z" transform="translate(119.367 7)" fill="#fff"/>
      <path id="Fill_20" data-name="Fill 20" d="M2.416,0,4.487,4.4A21.409,21.409,0,0,1,5.672,7.517C5.6,6.664,5.516,5.254,5.5,4.5L5.454,0H7.528V11H5.251L3.4,6.79c-.61-1.377-1.263-2.928-1.465-3.608.078.9.094,2.2.109,3.117L2.1,11H0V0Z" transform="translate(131.196 7)" fill="#fff"/>
      <path id="Fill_21" data-name="Fill 21" d="M0,11H2.151V0H0Z" transform="translate(143.025 7)" fill="#fff"/>
      <path id="Fill_22" data-name="Fill 22" d="M2.448,0,4.286,5.688c.145.487.335,1.1.513,1.9A20.8,20.8,0,0,1,5.44,5.407L7.327,0H9.678L5.807,11H3.775L0,0Z" transform="translate(147.327 7)" fill="#fff"/>
      <path id="Fill_23" data-name="Fill 23" d="M6.309,0,6.023,1.8H2.231V4.353H5.4v1.8H2.264V9.1H6.452V11H0V0Z" transform="translate(160.231 7)" fill="#fff"/>
      <path id="Fill_24" data-name="Fill 24" d="M2.176,11H0V0H4.112A3.061,3.061,0,0,1,7.35,3.228,2.843,2.843,0,0,1,4.889,6.267a2.171,2.171,0,0,1,.46.459C5.972,7.5,7.917,10.855,8,11L5.384,11l-.046-.079c-.4-.672-.577-.979-.988-1.726C3.247,7.2,2.917,6.678,2.525,6.5a1.14,1.14,0,0,0-.349-.094V11Zm0-9.226V4.747h.746c.941,0,1.362-.092,1.665-.364a1.5,1.5,0,0,0,.429-1.106,1.281,1.281,0,0,0-.793-1.345,4.024,4.024,0,0,0-1.254-.158Z" transform="translate(170 7)" fill="#fff"/>
      <path id="Fill_25" data-name="Fill 25" d="M7.323,2.557a5.253,5.253,0,0,0-2.659-.8c-.936,0-1.594.5-1.594,1.2,0,.542.312.813,1.266,1.054l1.379.346C7.587,4.829,8.6,5.928,8.6,7.479,8.6,9.6,6.732,11,3.891,11A8.734,8.734,0,0,1,0,10.05L.855,8.412a6.929,6.929,0,0,0,3.135.841c1.311,0,2-.5,2-1.429,0-.677-.475-1.1-1.494-1.353L3.233,6.154A3.475,3.475,0,0,1,.987,4.829,2.814,2.814,0,0,1,.509,3.235C.509,1.325,2.185,0,4.6,0A7.165,7.165,0,0,1,8.407,1.052Z" transform="translate(179.588 7)" fill="#fff"/>
      <path id="Fill_26" data-name="Fill 26" d="M0,11H2.151V0H0Z" transform="translate(190.342 7)" fill="#fff"/>
      <path id="Fill_27" data-name="Fill 27" d="M8.6,0,8.21,1.837H5.36V11H2.919V1.837H0V0Z" transform="translate(195.719 7)" fill="#fff"/>
      <path id="Fill_28" data-name="Fill 28" d="M2.785,0,4.261,3.006a9.515,9.515,0,0,1,.579,1.41c.134-.316.367-.854.614-1.376L6.945,0H9.678L6,6.473V11H3.582V6.473L0,0Z" transform="translate(204.322 7)" fill="#fff"/>
    </g>
  </g>
</svg>
