<svg xmlns="http://www.w3.org/2000/svg" width="213.378" height="25.728" viewBox="0 0 213.378 25.728">
  <g id="Logo_-_Full_Color_-_Mobile" data-name="Logo - Full Color - Mobile" transform="translate(0 0)">
    <path id="Path_1069" data-name="Path 1069" d="M8.748,14.166a3.2,3.2,0,0,1,.325-.433L8.1,13.192a2.264,2.264,0,0,1-.433.649,3.176,3.176,0,0,1,1.082.325ZM24.655,7.457l-.433.325c-.649.541-1.84,1.407-3.138,2.381-2.381,1.84-5.194,3.9-5.194,3.9.649.433,2.6,1.623,3.246,2.164l.649-.649c.216-.216.433-.433.649-.325a1.5,1.5,0,0,1,.866.757l.108.433.866-.216h.541c.108,0,.216,0,.216.108a.378.378,0,0,1,.216.108c.108,0,.108.108.108.216v.108c0,.108,0,.108-.108.108l-1.407.974h-.108c0,.108.108.108,0,.216h-.325c-.108,0-.108.108-.216.108l-.974.541h-.541l-.216.108-.216-.108-.108-.108.216-.866-.325-.108L12.968,15.9s-4.545,1.731-4.761,1.84a.69.69,0,0,1-.649,0c-.325-.108-.541-.325-.325-.866.216-.433.433-.974.649-1.407a6.53,6.53,0,0,1-.866-.866,3.293,3.293,0,0,1-.866.866,3.563,3.563,0,0,1,.757-1.407.335.335,0,0,1-.108-.216.2.2,0,0,1,.325,0,5.42,5.42,0,0,1,.757-.866c-2.489-1.731-2.922-2.705-2.705-3.03s1.407,0,1.407,0c0-.108.108-.108.216-.108a6.687,6.687,0,0,1,2.922.974c.325-.433.541-.757.866-1.19V9.189a.329.329,0,0,1,.433,0,4.62,4.62,0,0,1,1.515-1.407,2.585,2.585,0,0,1-.757,1.407,16.29,16.29,0,0,1,2.381,1.19l6.709-3.138a16.03,16.03,0,0,1,1.84-.866l1.082-.541a13.26,13.26,0,1,0,.866,1.623Zm-14.5,3.571c.649.325,1.19.649,1.19.649l.541-.216a5.206,5.206,0,0,1-.974-1.19,2.416,2.416,0,0,1-.757.757Z" transform="translate(-0.212 -0.112)" fill="#e65400"/>
    <path id="Path_1070" data-name="Path 1070" d="M37.86,6.933l-.216,1.84H34.072v2.489h2.813V13.1H34.072V17.97H31.8V6.933Zm5.086,0v7.25a2.745,2.745,0,0,0,.216,1.3,1.453,1.453,0,0,0,1.515.757,1.5,1.5,0,0,0,1.731-1.3V6.933h2.272V14.4a3.21,3.21,0,0,1-.216,1.731c-.325.866-1.407,2.056-3.787,2.056a4.082,4.082,0,0,1-3.571-1.515,2.874,2.874,0,0,1-.433-2.056V6.933h2.272Zm11.687,0v9.2h4L58.2,17.97H52.36V6.933Zm9.2,0v9.2h3.9l-.433,1.84H61.45V6.933ZM82.118,9.313a4.4,4.4,0,0,0-2.6-.866,1.346,1.346,0,0,0-1.515,1.19v.108c0,.541.325.866,1.19,1.082l1.3.433a3.267,3.267,0,0,1,2.813,3.246c0,2.272-1.84,3.679-4.545,3.679a7.9,7.9,0,0,1-3.787-.974l.866-1.731a6.121,6.121,0,0,0,3.03.866c1.3,0,1.948-.541,1.948-1.515a1.5,1.5,0,0,0-1.3-1.407L78.33,13.1a3.213,3.213,0,0,1-2.164-1.407,3.175,3.175,0,0,1-.433-1.731c0-2.056,1.623-3.463,4-3.463a6.371,6.371,0,0,1,3.679,1.082l-1.3,1.731Zm8.549-2.381,3.463,11.146H91.749l-.757-2.6H87.745l-.757,2.6H84.715L88.286,6.933h2.381Zm-.216,6.6s-.325-1.19-.541-2.272c-.108-.541-.433-1.948-.433-1.948l-.541,2.164c-.216.757-.325,1.3-.541,2.056Zm8.44-6.6V17.97H96.51V6.933Zm6.06,0v9.2h4l-.433,1.84h-5.843V6.933h2.272Zm13.418,0v7.25a2.745,2.745,0,0,0,.216,1.3,1.453,1.453,0,0,0,1.515.757,1.5,1.5,0,0,0,1.731-1.3V6.933H124.1V14.4a3.21,3.21,0,0,1-.216,1.731c-.325.866-1.407,2.056-3.787,2.056a4.082,4.082,0,0,1-3.571-1.515,2.875,2.875,0,0,1-.433-2.056V6.933h2.272Zm11.9,0,2.164,4.437a26.926,26.926,0,0,1,1.19,3.138c-.108-.866-.108-2.272-.216-3.03V6.933h2.164V17.97h-2.381l-1.84-4.22a33.8,33.8,0,0,1-1.515-3.679,29.382,29.382,0,0,1,.108,3.138l.108,4.761h-2.164V6.933Zm11.362,0V17.97h-2.272V6.933Zm5.086,0,1.84,5.735c.108.541.325,1.082.541,1.948.216-.757.433-1.407.649-2.164l1.84-5.519h2.381l-3.9,11.146h-2.056L144.339,6.933Zm16.232,0-.216,1.84h-3.787v2.6h3.138v1.84h-3.138v2.922h4.22v1.948h-6.493V6.933Zm7.467,0a3.052,3.052,0,0,1,3.246,2.922v.325a2.855,2.855,0,0,1-2.489,3.03c.216.108.325.325.433.433.649.757,2.705,4.328,2.705,4.328h-2.6c-.433-.757-.649-1.082-1.082-1.84-1.082-1.948-1.407-2.489-1.84-2.705-.108,0-.216-.108-.325-.108V17.97h-2.164V6.933Zm-1.948,4.761h.757a2.133,2.133,0,0,0,1.623-.325,1.389,1.389,0,0,0,.433-1.082,1.175,1.175,0,0,0-.757-1.3,2.664,2.664,0,0,0-1.3-.108h-.757Zm14.825-2.381a4.4,4.4,0,0,0-2.6-.866,1.346,1.346,0,0,0-1.515,1.19v.108c0,.541.325.866,1.19,1.082l1.3.433a3.267,3.267,0,0,1,2.813,3.246c0,2.272-1.84,3.679-4.545,3.679a7.9,7.9,0,0,1-3.787-.974l.866-1.731a6.121,6.121,0,0,0,3.03.866c1.3,0,1.948-.541,1.948-1.515a1.432,1.432,0,0,0-1.407-1.407L179.4,13.1a3.213,3.213,0,0,1-2.164-1.407,3.175,3.175,0,0,1-.433-1.731c0-2.056,1.623-3.463,4-3.463a6.371,6.371,0,0,1,3.679,1.082l-1.19,1.731Zm6.384-2.381V17.97h-2.272V6.933Zm10.713,0-.325,1.84h-2.6v9.2H195.2v-9.2h-2.705V6.933Zm4,0,1.407,3.03a7.516,7.516,0,0,1,.541,1.407,7.436,7.436,0,0,1,.649-1.407l1.407-3.03H211l-3.571,6.493V17.97h-2.272V13.425L201.69,6.933H204.4Z" transform="translate(2.382 0.413)" fill="#5a5a5a"/>
  </g>
</svg>
